<svg xmlns="http://www.w3.org/2000/svg" width="24" height="25" viewBox="0 0 24 25" fill="none"><path d="M21.75 3.90625H2.25C1.83516 3.90625 1.5 4.25537 1.5 4.6875V20.3125C1.5 20.7446 1.83516 21.0938 2.25 21.0938H21.75C22.1648 21.0938 22.5 20.7446 22.5 20.3125V4.6875C22.5 4.25537 22.1648 3.90625 21.75 3.90625ZM3.1875 5.66406H20.8125V8.59375H3.1875V5.66406ZM20.8125 19.3359H3.1875V10.7422H20.8125V19.3359ZM15.2578 17.7734H19.125C19.2281 17.7734 19.3125 17.6855 19.3125 17.5781V15.8203C19.3125 15.7129 19.2281 15.625 19.125 15.625H15.2578C15.1547 15.625 15.0703 15.7129 15.0703 15.8203V17.5781C15.0703 17.6855 15.1547 17.7734 15.2578 17.7734Z" fill="#091B55"></path></svg>