<svg xmlns="http://www.w3.org/2000/svg" width="24" height="24" viewBox="0 0 24 24" fill="none"><path d="M21 3H3C2.44771 3 2 3.44771 2 4V17C2 17.5523 2.44771 18 3 18H21C21.5523 18 22 17.5523 22 17V4C22 3.44771 21.5523 3 21 3Z" stroke="#9A674A" stroke-width="2" stroke-linecap="round" stroke-linejoin="round"></path><path d="M6 7H18" stroke="#9A674A" stroke-width="2" stroke-linecap="round" stroke-linejoin="round"></path><path d="M6 10.5H9" stroke="#9A674A" stroke-width="2" stroke-linecap="round" stroke-linejoin="round"></path><path d="M6 14H8" stroke="#9A674A" stroke-width="2" stroke-linecap="round" stroke-linejoin="round"></path><path d="M15 16.5C16.6569 16.5 18 15.1569 18 13.5C18 11.8431 16.6569 10.5 15 10.5C13.3431 10.5 12 11.8431 12 13.5C12 15.1569 13.3431 16.5 15 16.5Z" stroke="#9A674A" stroke-width="2"></path><path d="M15 20L17 21V15.7361C17 15.7361 16.4297 16.5 15 16.5C13.5703 16.5 13 15.75 13 15.75V21L15 20Z" stroke="#9A674A" stroke-width="2" stroke-linecap="round" stroke-linejoin="round"></path></svg>