<svg xmlns="http://www.w3.org/2000/svg" width="16" height="15" viewBox="0 0 16 15" fill="none"><path d="M10.0857 10.888L7.82816 8.63052C7.74566 8.54802 7.64816 8.53302 7.59566 8.53302C7.54316 8.53302 7.44566 8.54802 7.36316 8.63052L5.09816 10.8955C4.84316 11.1505 4.44566 11.563 3.11816 11.563L5.90066 14.338C6.32254 14.7594 6.89441 14.996 7.49066 14.996C8.08692 14.996 8.65879 14.7594 9.08066 14.338L11.8707 11.5555C11.1882 11.5555 10.6182 11.4205 10.0857 10.888ZM5.09816 4.10052L7.36316 6.36552C7.42316 6.42552 7.51316 6.46302 7.59566 6.46302C7.67816 6.46302 7.76816 6.42552 7.82816 6.36552L10.0707 4.12302C10.6032 3.56802 11.2107 3.44052 11.8932 3.44052L9.10316 0.65802C8.68129 0.236669 8.10942 0 7.51316 0C6.91691 0 6.34504 0.236669 5.92316 0.65802L3.14066 3.43302C4.46066 3.43302 4.86566 3.86802 5.09816 4.10052Z" fill="#9A674A"></path><path d="M14.3305 5.88554L12.643 4.19054H11.698C11.293 4.19054 10.888 4.35554 10.6105 4.64804L8.36052 6.89804C8.15052 7.10804 7.87302 7.21304 7.59552 7.21304C7.30977 7.20901 7.03625 7.09639 6.83052 6.89804L4.56552 4.62554C4.28052 4.34054 3.89052 4.17554 3.47802 4.17554H2.37552L0.65802 5.90054C0.236669 6.32241 0 6.89428 0 7.49054C0 8.08679 0.236669 8.65866 0.65802 9.08054L2.37552 10.8055H3.48552C3.89052 10.8055 4.28052 10.6405 4.57302 10.3555L6.83802 8.09054C7.04802 7.88054 7.32552 7.77554 7.60302 7.77554C7.88052 7.77554 8.15802 7.88054 8.36802 8.09054L10.6255 10.348C10.9105 10.633 11.3005 10.798 11.713 10.798H12.658L14.3455 9.10304C14.7686 8.67357 15.0046 8.09408 15.0018 7.49119C14.999 6.88831 14.7576 6.31104 14.3305 5.88554Z" fill="#9A674A"></path></svg>