<svg xmlns="http://www.w3.org/2000/svg" width="18" height="18" viewBox="0 0 18 18" fill="none"><path d="M12.1013 13.0641L9.39266 10.3554C9.29367 10.2564 9.17668 10.2384 9.11369 10.2384C9.0507 10.2384 8.93371 10.2564 8.83473 10.3554L6.11705 13.0731C5.81109 13.379 5.33414 13.874 3.74133 13.874L7.07993 17.2036C7.58613 17.7091 8.27229 17.9931 8.98771 17.9931C9.70312 17.9931 10.3893 17.7091 10.8955 17.2036L14.2431 13.865C13.4242 13.865 12.7403 13.703 12.1013 13.0641ZM6.11705 4.92004L8.83473 7.63771C8.90672 7.7097 9.0147 7.7547 9.11369 7.7547C9.21268 7.7547 9.32067 7.7097 9.39266 7.63771L12.0833 4.94703C12.7223 4.28111 13.4512 4.12813 14.2701 4.12813L10.9225 0.78953C10.4163 0.283969 9.73012 0 9.0147 0C8.29929 0 7.61312 0.283969 7.10693 0.78953L3.76833 4.11913C5.35214 4.11913 5.83808 4.64107 6.11705 4.92004Z" fill="#091B55"></path><path d="M17.1946 7.06177L15.1698 5.02801H14.0359C13.55 5.02801 13.0641 5.22598 12.7311 5.57694L10.0314 8.27662C9.77946 8.52859 9.4465 8.65457 9.11354 8.65457C8.77067 8.64975 8.4425 8.51462 8.19565 8.27662L5.47797 5.54995C5.13601 5.20799 4.66807 5.01001 4.17313 5.01001H2.85028L0.78953 7.07976C0.283969 7.58595 0 8.27212 0 8.98753C0 9.70295 0.283969 10.3891 0.78953 10.8953L2.85028 12.9651H4.18213C4.66807 12.9651 5.13601 12.7671 5.48697 12.4251L8.20464 9.70745C8.45661 9.45548 8.78958 9.32949 9.12254 9.32949C9.4555 9.32949 9.78846 9.45548 10.0404 9.70745L12.7491 12.4161C13.0911 12.7581 13.559 12.9561 14.0539 12.9561H15.1878L17.2126 10.9223C17.7203 10.407 18.0033 9.7117 18 8.98832C17.9966 8.26495 17.707 7.57231 17.1946 7.06177Z" fill="#091B55"></path></svg>