<svg xmlns="http://www.w3.org/2000/svg" width="27" height="18" viewBox="0 0 27 18" fill="none"><path d="M8.95455 14.7143C8.95455 15.9766 7.93699 17 6.68182 17C5.42662 17 4.40909 15.9766 4.40909 14.7143M8.95455 14.7143C8.95455 13.4519 7.93699 12.4286 6.68182 12.4286C5.42662 12.4286 4.40909 13.4519 4.40909 14.7143M8.95455 14.7143H17.4773M4.40909 14.7143H1V1H17.4773V14.7143M17.4773 14.7143C17.4773 13.4519 18.4948 12.4286 19.75 12.4286C21.0052 12.4286 22.0227 13.4519 22.0227 14.7143C22.0227 15.9766 21.0052 17 19.75 17C18.4948 17 17.4773 15.9766 17.4773 14.7143ZM17.4773 14.7143V5H22.3474L26 9.85714V14.7143H22.4836" stroke="#9A674A" stroke-width="2" stroke-linecap="round" stroke-linejoin="round"></path></svg>